<svg width="429" height="86" viewBox="0 0 429 86" fill="none" xmlns="http://www.w3.org/2000/svg">
<g opacity="0.05">
<path d="M343.169 89.2995C343.169 97.6747 337.537 105.852 326.873 113.456C316.233 121.043 300.773 127.916 281.579 133.705C243.204 145.279 190.128 152.452 131.46 152.452C72.7918 152.452 19.7164 145.279 -18.6591 133.705C-37.8531 127.916 -53.3132 121.043 -63.9525 113.456C-74.6169 105.852 -80.2488 97.6747 -80.2488 89.2995C-80.2488 80.9242 -74.6169 72.747 -63.9525 65.1426C-53.3132 57.5562 -37.8531 50.6831 -18.6591 44.8942C19.7164 33.3202 72.7918 26.147 131.46 26.147C190.128 26.147 243.204 33.3202 281.579 44.8942C300.773 50.6831 316.233 57.5562 326.873 65.1426C337.537 72.747 343.169 80.9242 343.169 89.2995Z" stroke="black" stroke-width="2"/>
<path d="M228.508 89.2997C228.508 92.422 226.385 95.7997 221.569 99.2085C216.805 102.58 209.782 105.698 200.924 108.35C183.233 113.646 158.673 116.95 131.46 116.95C104.247 116.95 79.6873 113.646 61.9963 108.35C53.138 105.698 46.1151 102.58 41.3514 99.2085C36.5351 95.7997 34.4124 92.422 34.4124 89.2997C34.4124 86.1775 36.5351 82.7998 41.3514 79.391C46.1151 76.0195 53.138 72.9016 61.9963 70.2498C79.6873 64.9539 104.247 61.6494 131.46 61.6494C158.673 61.6494 183.233 64.9539 200.924 70.2498C209.782 72.9016 216.805 76.0195 221.569 79.391C226.385 82.7998 228.508 86.1775 228.508 89.2997Z" stroke="black" stroke-width="4"/>
<path d="M428.102 89.2996C428.102 101.338 419.95 112.908 404.962 123.515C389.988 134.113 368.288 143.678 341.428 151.718C287.714 167.798 213.478 177.751 131.459 177.751C49.4401 177.751 -24.795 167.798 -78.5091 151.718C-105.369 143.678 -127.07 134.113 -142.044 123.515C-157.031 112.908 -165.184 101.338 -165.184 89.2996C-165.184 77.2609 -157.031 65.6913 -142.044 55.084C-127.07 44.486 -105.369 34.9215 -78.5091 26.8808C-24.795 10.8012 49.4401 0.848633 131.459 0.848633C213.478 0.848633 287.714 10.8012 341.428 26.8808C368.288 34.9215 389.988 44.486 404.962 55.084C419.95 65.6913 428.102 77.2609 428.102 89.2996Z" stroke="black"/>
</g>
</svg>
