<svg width="50" height="49" fill="none" xmlns="http://www.w3.org/2000/svg"><path d="M25.616 24.23c0 5.956-5.51 10.782-12.308 10.782C6.509 35.012 1 30.186 1 24.23 1 19.815 7.799 7.135 11.315 2c.938-1.335 3.106-1.335 4.044 0 3.458 5.134 10.257 17.814 10.257 22.23zm-12.309-2.566v26.182" stroke="#202E35" stroke-width="2" stroke-miterlimit="10" stroke-linecap="round" stroke-linejoin="round"/><path d="M8.032 16.53l5.275 5.134 5.275-5.134m-10.55 7.7l5.275 5.134 5.275-5.134" stroke="#202E35" stroke-width="2" stroke-miterlimit="10" stroke-linecap="round" stroke-linejoin="round"/><path d="M49 28.902c0 4.775-4.454 8.677-9.905 8.677-5.45 0-9.905-3.902-9.905-8.677 0-3.542 5.451-13.758 8.264-17.917.703-1.078 2.52-1.078 3.224 0C43.549 15.144 49 25.31 49 28.902zm-9.903-2.105v21.05" stroke="#EB016E" stroke-width="2" stroke-miterlimit="10" stroke-linecap="round" stroke-linejoin="round"/><path d="M1.003 47.846l47.598.005" stroke="#202E35" stroke-width="2" stroke-miterlimit="10" stroke-linecap="round" stroke-linejoin="round"/></svg>