<svg width="62" height="48" fill="none" xmlns="http://www.w3.org/2000/svg"><path d="M5.5 39.551c1.657 0 3-1.333 3-2.978 0-1.645-1.343-2.979-3-2.979s-3 1.334-3 2.979 1.343 2.978 3 2.978z" stroke="#EB016E" stroke-width="2" stroke-miterlimit="10" stroke-linecap="round" stroke-linejoin="round"/><path d="M13 35.084s4.5 5.957 18.15 5.957c0 0 13.35 0 17.85-5.957" stroke="#202E35" stroke-width="2" stroke-miterlimit="10" stroke-linecap="round" stroke-linejoin="round"/><path d="M31 32.105l-18-9.831v18.768S17.5 47 31.15 47c0 0 13.35 0 17.85-5.958V22.274l-18 9.83z" stroke="#202E35" stroke-width="2" stroke-miterlimit="10" stroke-linecap="round" stroke-linejoin="round"/><path d="M5.5 33.594v-15.49" stroke="#EB016E" stroke-width="2" stroke-miterlimit="10" stroke-linecap="round" stroke-linejoin="round"/><path d="M31 1L1 15.72l30 16.385 18-9.831 12-6.554L31 1z" stroke="#202E35" stroke-width="2" stroke-miterlimit="10" stroke-linecap="round" stroke-linejoin="round"/></svg>