<svg width="50" height="50" fill="none" xmlns="http://www.w3.org/2000/svg"><path d="M21.25 19h7.5v7.5h7.5V34h-7.5v7.5h-7.5V34h-7.5v-7.5h7.5V19z" stroke="#EB016E" stroke-width="2" stroke-miterlimit="10" stroke-linecap="round" stroke-linejoin="round"/><path d="M43.75 48.25H6.25a4.513 4.513 0 0 1-4.5-4.5v-27c0-2.475 2.025-4.5 4.5-4.5h37.5c2.475 0 4.5 2.025 4.5 4.5v27c0 2.475-2.025 4.5-4.5 4.5z" stroke="#202E35" stroke-width="2" stroke-miterlimit="10" stroke-linecap="round" stroke-linejoin="round"/><path d="M14.5 9.25V7a5.218 5.218 0 0 1 5.25-5.25h10.5A5.218 5.218 0 0 1 35.5 7v2.25" stroke="#202E35" stroke-width="2" stroke-miterlimit="10" stroke-linecap="square" stroke-linejoin="round"/><path d="M19.75 9.25V7h10.5v2.25" stroke="#202E35" stroke-width="2" stroke-miterlimit="10" stroke-linecap="square" stroke-linejoin="round"/></svg>