<svg width="52" height="48" fill="none" xmlns="http://www.w3.org/2000/svg"><path d="M21.652 12.75V1H51v37.386H21.652V24.5" stroke="#EB016E" stroke-width="2" stroke-miterlimit="10" stroke-linejoin="round"/><path d="M17.304 36.25V21.296H26c3.26 0 5.435-2.991 5.435-5.341H9.695C4.588 15.955 1 17.557 1 22.364v9.613c0 2.244 2.065 4.273 4.348 4.273m11.957-13.886V48M11.87 34.114V48M6.435 22.364V48m5.978-35.25c2.717 0 4.891-1.709 4.891-4.273V5.273C17.304 2.709 15.13 1 12.413 1 9.695 1 7.52 2.71 7.52 5.273v3.204c0 2.564 2.174 4.273 4.892 4.273z" stroke="#202E35" stroke-width="2" stroke-miterlimit="10" stroke-linejoin="round"/><path d="M36.869 37.319v9.613m-7.719-.962l7.718-7.584 7.718 7.585" stroke="#EB016E" stroke-width="2" stroke-miterlimit="10" stroke-linejoin="round"/></svg>