<svg width="59" height="56" fill="none" xmlns="http://www.w3.org/2000/svg"><path d="M53.838 30.688c2.212-1.833 3.564-4.643 3.564-7.697 0-4.52-2.95-8.43-7.129-9.774-.738-4.887-5.04-8.674-10.202-8.674-1.598 0-3.196.367-4.548 1.1-.246 0-.369-.123-.615-.123A10.495 10.495 0 0 0 26.304 1c-3.564 0-6.637 1.71-8.481 4.398-1.352-.488-2.827-.855-4.425-.855-6.515 0-11.923 5.253-11.923 11.85 0 6.476 5.286 11.851 11.923 11.851 4.794 0 8.85-2.81 10.694-6.72a10.316 10.316 0 0 0 8.358 4.277c1.598 0 2.95-.367 4.302-.977.492 2.932 2.336 5.497 4.917 6.963M5.9 16.027c0 4.154 3.442 7.575 7.62 7.575m12.661-9.652c0 3.543 2.827 6.353 6.392 6.353m8.973 4.765c.737 2.077 2.581 3.543 4.794 4.031M13.398 4.42c3.564 0 6.76 1.589 8.973 4.155m10.817-5.132a10.228 10.228 0 0 1 3.441 6.231m3.811 12.462c-1.844 2.199-4.671 3.543-7.867 3.543" stroke="#EB016E" stroke-width="2" stroke-miterlimit="10"/><path d="M56.542 55l-4.917-21.991h-7.744L38.841 55h17.7zM0 55h59M41.791 39.118H19.668V55m-2.46-10.995H7.375V55m15.979-4.887h2.458m2.459 0h2.458m2.459 0h2.458" stroke="#202E35" stroke-width="2" stroke-miterlimit="10"/></svg>