<svg width="146" height="115" fill="none" xmlns="http://www.w3.org/2000/svg"><path d="M37.6 59.272l41.2 23.8 57.8-33.3-41.3-23.8-57.7 33.3zm-8.3 4.8l49.5 28.6v-9.6l-41.2-23.8-8.3 4.8z" stroke="#fff" stroke-width="1.5" stroke-miterlimit="10" stroke-linecap="round" stroke-linejoin="round"/><path d="M144.7 54.472l-8.1-4.7-57.8 33.3v9.6l65.9-38.2zM49 84.954l29.8 17.218v-9.5l-49.5-28.6v9.5l15.7 9.07m99.8-18.67l-.1-9.5-65.9 38.2v9.5l66-38.2zM17.9 104.44a6.993 6.993 0 0 0 .7-1.668c.4-1.4.1-2.4-.7-3l-.5-.3c-.6-.2-1.3-.2-2.2 0-2.5.7-5.1 3.3-5.8 5.8-.3 1.4-.1 2.4.6 3l.7.4c.3.1.7.1 1.2.1.3-.1.6-.1.9-.2.911-.261 1.865-.775 2.723-1.462" stroke="#fff" stroke-width="1.5" stroke-miterlimit="10" stroke-linecap="round" stroke-linejoin="round"/><path d="M51.4 81.472l.1-.2c.3-.4.8-.6 1.5-.4.5.1 1.1.5 1.5.9.6.5 1.1 1.3 1.3 2 0 .1.1.3.1.4 0 .2 0 .4-.1.6l-.2.3c-.3.3-.8.5-1.4.3-.499-.125-1.015-.423-1.47-.815M17.5 99.472c-.6-.2-1.3-.3-2.2 0-2.5.7-5.2 3.3-5.8 5.8-.4 1.3-.1 2.4.6 3l-7.6-4.4-.7-.4h-.1c-.5-.4-.7-1-.7-1.7 0-.4 0-.8.2-1.3.7-2.5 3.3-5.2 5.8-5.8 1.2-.3 2.1-.2 2.7.3l7.8 4.5z" stroke="#fff" stroke-width="1.5" stroke-miterlimit="10" stroke-linecap="round" stroke-linejoin="round"/><path d="M33.8 114.072c-9.2 0-19.3-7.9-19.8-8.3-.7-.5-.8-1.5-.3-2.1.5-.7 1.5-.8 2.1-.3.1.1 15.1 11.7 23.2 6.2 1.2-.8 1.9-1.7 2-2.5.3-1.7-1.5-4-3.3-6.3-2.6-3.4-5.6-7.2-3.4-11.3 4.3-7.8 18.5-7.9 19.2-7.9.8 0 1.5.7 1.5 1.5s-.7 1.5-1.5 1.5c-.1 0-13.1.1-16.5 6.4-1.2 2.2.5 4.6 3.1 8 2.1 2.7 4.3 5.6 3.9 8.6-.3 1.7-1.4 3.2-3.3 4.6-2.1 1.4-4.5 1.9-6.9 1.9z" stroke="#fff" stroke-width="1.5" stroke-miterlimit="10" stroke-linecap="round" stroke-linejoin="round"/><path d="M58.422 2.913c-5.15 2.907-10.036 7.928-13.998 14.139l1.981 1.453c3.433-5.417 7.66-9.778 12.149-12.289 4.49-2.643 8.847-3.171 12.28-1.718L72.685.93C68.59-.787 63.571-.127 58.421 2.913zm0 9.647c-3.301 1.981-6.602 5.285-9.243 9.381l1.848 1.454c2.113-3.304 4.622-5.947 7.263-7.4 2.641-1.586 5.414-1.85 7.395-1.057l1.849-3.568c-2.377-1.19-5.678-.793-9.112 1.19zm.133 9.645c-1.849 1.057-3.566 2.775-4.886 5.022l1.849 1.453c.792-1.321 1.98-2.51 3.037-3.04 1.056-.66 2.245-.792 3.037-.396l1.849-3.567c-1.32-.793-3.17-.529-4.886.528z" fill="#fff"/></svg>