<svg width="133" height="99" fill="none" xmlns="http://www.w3.org/2000/svg"><path d="M60.29 76.041L132 34.53v21.954L60.29 97.596V76.04zM1 64.067V42.512l59.29 33.53v21.554L1 64.066z" stroke="#000" stroke-width="1.5" stroke-linejoin="round"/><path d="M72.71 1L1 42.512l59.29 33.53L132 34.528 72.71 1zm43.665 53.088l5.208-3.193v-5.988l-5.208 3.194v5.987zm-7.21 4.39l5.208-3.193V48.9l-5.208 3.193v6.386zm-7.211 3.66l5.208-3.078v-5.77l-5.208 3.116v5.732zM94.743 66.5l5.208-3.193V57.28l-5.208 3.146V66.5zm21.632-4.429l5.208-3.379v-5.205l-5.208 3.193v5.391zm-7.21 4.391l5.208-3.194v-5.6l-5.208 3.193v5.6zm-7.211 3.991l5.208-3.193v-5.532l-5.208 3.194v5.531zm-7.211 4.391l5.208-3.193v-5.742l-5.208 3.194v5.74zm-13.929 7.879l2.004-1.197V71.272l-2.004 1.073v10.378zm4.338-2.603l2.003-1.197V68.67l-2.003 1.074V80.12zm-8.675 4.983l2.003-1.197v-9.979l-2.003 1.198v9.978zm-8.676 5.153l2.003-1.198V79.08l-2.003 1.198v9.979zm4.339-2.603l2.002-1.197v-9.98l-2.003 1.198v9.98zm-9.045 5.153l2.003-1.197v-9.98l-2.003 1.198v9.98z" stroke="#000" stroke-width="1.5" stroke-linejoin="round"/><path d="M126.792 42.512c1.202-.798 2.404 0 2.404 1.198 0 1.596-1.202 3.193-2.404 3.991-1.202.799-2.404 0-2.404-1.197 0-1.597 1.202-3.593 2.404-3.992zm-.401 8.382c1.202-.798 2.404 0 2.404 1.198 0 1.596-.802 3.193-2.404 3.991-1.202.799-2.404 0-2.404-1.197 0-1.597.802-3.193 2.404-3.992z" fill="#EB016E"/></svg>