<svg width="71" height="130" fill="none" xmlns="http://www.w3.org/2000/svg"><path d="M31.624 14.74C26.45 17.675 21.416 22.71 17.5 29.002l1.818 1.398c3.496-5.453 7.831-9.788 12.166-12.445 4.475-2.657 8.95-3.217 12.306-1.678l2.098-3.497c-4.056-1.818-9.09-1.118-14.264 1.958zm0 9.788c-3.356 1.958-6.712 5.314-9.23 9.37l1.958 1.398c2.098-3.356 4.755-6.013 7.412-7.551 2.657-1.539 5.454-1.958 7.551-.98l1.958-3.635c-2.937-.979-6.153-.56-9.649 1.398zm0 9.649c-1.818.98-3.496 2.797-4.894 5.035l1.957 1.398c.84-1.398 1.958-2.517 3.077-3.077 1.119-.699 2.237-.839 3.076-.42l1.958-3.635c-1.538-.56-3.356-.28-5.174.7z" fill="#EB016E"/><path d="M68.682 2.014L69.94 49c0 .42-.28.84-.838 1.119-1.12.7-2.937.7-4.056 0-.56-.28-.839-.7-.839-1.119l.979-46.986c0 .28.14.559.56.699.699.42 1.817.42 2.377 0 .42-.14.559-.42.559-.7z" stroke="#000" stroke-width="1.5" stroke-linejoin="round"/><path d="M68.262 1.315c.7.42.7.979 0 1.398-.7.42-1.818.42-2.377 0-.7-.42-.7-.979 0-1.398.56-.42 1.678-.42 2.377 0z" stroke="#000" stroke-width="1.5" stroke-linejoin="round"/><path d="M1.5 85.5l-.071.926C1.24 88.88 3.799 90.6 6 89.5v0l18.216-11.026a2.335 2.335 0 0 0 1.036-1.355v0a2.334 2.334 0 0 0-1.955-2.957l-.418-.052a2.695 2.695 0 0 0-1.652.324L7.213 82.295" stroke="#000" stroke-width="1.5"/><path d="M5.975 41.014L7.233 88c0 .42-.28.84-.839 1.119-1.118.7-2.936.7-4.055 0-.56-.28-.839-.7-.839-1.119l.979-46.986c0 .28.14.559.56.699.698.42 1.817.42 2.377 0 .42-.14.559-.42.559-.7z" stroke="#000" stroke-width="1.5" stroke-linejoin="round"/><path d="M5.555 40.315c.7.42.7.979 0 1.398-.7.42-1.818.42-2.377 0-.7-.42-.7-.979 0-1.398.56-.42 1.678-.42 2.377 0zm13.343 77.207c0 1.958.7 3.217 1.818 3.916l11.048 6.433c-1.119-.56-1.818-1.958-1.818-3.776" stroke="#000" stroke-width="1.5" stroke-linejoin="round"/><path d="M18.898 117.522c0 1.958.7 3.217 1.818 3.916l11.048 6.433c-1.119-.56-1.818-1.958-1.818-3.776m23.633-77.053L42.53 40.61c1.678-.98 3.217-1.119 4.335-.42l11.048 6.433c-1.119-.56-2.657-.56-4.335.42zm-23.633 77.053l-.14-56.356-11.047-6.433.035 14.194m.105 42.022L18.81 82" stroke="#000" stroke-width="1.5" stroke-linejoin="round"/><path d="M35.82 57.25l-11.047-6.432 17.76-10.208 11.047 6.432-17.76 10.209z" stroke="#000" stroke-width="1.5" stroke-linejoin="round"/><path d="M29.806 67.739L18.76 61.306c0-3.775 2.657-8.53 6.013-10.488l11.047 6.433c-3.356 1.958-6.013 6.712-6.013 10.488z" stroke="#000" stroke-width="1.5" stroke-linejoin="round"/><path d="M53.58 47.042c3.356-1.957 6.013-.42 6.013 3.496l.14 56.356c0 3.776-2.657 8.53-6.014 10.488L36.1 127.451c-3.356 1.958-6.013.419-6.013-3.496l-.28-56.216c0-3.776 2.658-8.53 6.014-10.488l17.76-10.209z" stroke="#000" stroke-width="1.5" stroke-linejoin="round"/><path d="M56.08 52.53c0-1.669-1.111-2.428-2.5-1.517-1.389.91-2.5 3.035-2.5 4.704 0 1.669 1.111 2.427 2.5 1.517 1.389-.91 2.5-3.035 2.5-4.704zm-8 4c0-1.669-1.111-2.428-2.5-1.517-1.389.91-2.5 3.035-2.5 4.704 0 1.669 1.111 2.427 2.5 1.517 1.389-.91 2.5-3.035 2.5-4.704zm9 16.77l-24 13.323V74.81l24-13.187V73.3z" stroke="#000" stroke-width="1.5" stroke-linejoin="round"/><path d="M70 49.5v0c0 1.24-.651 2.39-1.715 3.029L60 57.5l-.188-6L64 49" stroke="#000" stroke-width="1.5"/></svg>