<svg width="96" height="51" fill="none" xmlns="http://www.w3.org/2000/svg"><path d="M64.932 26.213v-.073h-.498a.637.637 0 0 0 .175.527c.136.142.33.215.528.201.492 0 .79-.297.79-.774 0-.278-.114-.545-.41-.617v-.009c.26-.1.328-.366.328-.613 0-.416-.248-.682-.678-.682-.487 0-.64.349-.625.771h.455v-.055c0-.114.025-.272.178-.272s.182.149.182.266c0 .297-.12.346-.408.346v.446c.303-.01.4.071.4.364 0 .149-.013.368-.229.368a.2.2 0 0 1-.144-.06.192.192 0 0 1-.055-.143m-.792-2.031H62.74v.463h.691l-.802 2.234h.532l.967-2.697zm-2.549 1.225a.556.556 0 0 0 .358-.561.658.658 0 0 0-.653-.664.659.659 0 0 0-.653.664.563.563 0 0 0 .355.56v.009c-.322.11-.454.36-.454.702 0 .42.335.762.749.762s.749-.341.749-.762c0-.334-.123-.604-.445-.702l-.006-.008zm-.298-.846c.14 0 .159.184.159.282 0 .098 0 .302-.16.302-.128 0-.148-.204-.148-.302s.021-.28.149-.28v-.002zm0 1.87c-.18 0-.217-.24-.217-.375 0-.134.037-.384.214-.384.176 0 .228.252.228.384 0 .133-.05.375-.225.375zm-1.449-2.249h-.799v.463h.267v2.234h.532v-2.697zm-29.671 0h-1.194v2.697h1.198v-.503h-.609v-.607h.53v-.5h-.53v-.587h.605v-.5zm5.154 2.098a.35.35 0 0 0-.355.347.352.352 0 0 0 .6.248.345.345 0 0 0 .1-.248.341.341 0 0 0-.345-.347zm-.754-2.098h-1.498v.5h.456v2.197h.584v-2.197h.458v-.5zm-2.366.629v-.505a1.07 1.07 0 0 0-.498-.124.7.7 0 0 0-.533.218.725.725 0 0 0-.197.55c0 .377.195.573.518.772.155.11.33.181.33.38a.3.3 0 0 1-.1.216.289.289 0 0 1-.224.071.722.722 0 0 1-.42-.14v.496a.94.94 0 0 0 .48.132.751.751 0 0 0 .588-.222.779.779 0 0 0 .223-.596c0-.707-.85-.734-.85-1.162a.256.256 0 0 1 .083-.193.247.247 0 0 1 .197-.064.673.673 0 0 1 .41.17m10.864-14.573c-2.602.025-7.287.178-9.385.248-.66.023-1.053.052-1.053.052a.602.602 0 0 0-.505.342c-.05.117-.083.227-.083.227s-.037.109-.066.234a.603.603 0 0 0 .202.572s.301.256.825.665c1.656 1.291 5.356 4.169 7.445 5.725-.78 2.485-2.083 6.992-2.663 9.01a30.878 30.878 0 0 0-.277 1.02.603.603 0 0 0 .17.587c.096.084.191.15.191.15s.092.071.202.136a.6.6 0 0 0 .602-.02s.338-.209.886-.58c1.737-1.175 5.617-3.809 7.739-5.318 2.12 1.506 6 4.143 7.737 5.318.548.371.886.58.886.58a.602.602 0 0 0 .602.02 2.3 2.3 0 0 0 .202-.136s.095-.064.19-.15a.603.603 0 0 0 .171-.586s-.095-.386-.279-1.022c-.58-2.017-1.883-6.524-2.663-9.009 2.09-1.552 5.79-4.431 7.446-5.725.52-.407.825-.665.825-.665a.603.603 0 0 0 .206-.574c-.029-.125-.068-.233-.068-.233s-.033-.11-.083-.23a.602.602 0 0 0-.504-.341s-.396-.03-1.054-.052c-2.097-.07-6.776-.223-9.385-.248-.82-2.465-2.407-6.879-3.124-8.852-.226-.623-.377-.99-.377-.99a.602.602 0 0 0-.481-.374C47.419 0 47.303 0 47.303 0s-.116 0-.243.008a.602.602 0 0 0-.482.373s-.15.368-.376.99c-.715 1.974-2.308 6.386-3.136 8.855l.001.002z" fill="#fff"/><path d="M41.73 17.858l-3.345 10.277a.043.043 0 0 0 .015.049.8.8 0 0 0 .051.04c.027.02.054.036.054.036a.044.044 0 0 0 .052 0l8.741-6.356 8.742 6.356a.044.044 0 0 0 .05 0s.03-.016.055-.036l.051-.04a.042.042 0 0 0 .015-.049l-3.344-10.278 8.746-6.349a.043.043 0 0 0 .017-.048s0-.032-.018-.063a.197.197 0 0 1-.023-.062.042.042 0 0 0-.04-.03H50.74L47.405 1.029a.044.044 0 0 0-.04-.03h-.132a.044.044 0 0 0-.042.03l-3.335 10.28H33.048a.044.044 0 0 0-.042.03s-.014.03-.023.062l-.018.063a.044.044 0 0 0 .017.048l8.747 6.346zm51.266 15.505a2.198 2.198 0 1 0 0 4.395 2.198 2.198 0 0 0 0-4.395zm0 3.953a1.755 1.755 0 1 1-.008-3.509 1.755 1.755 0 0 1 .008 3.51z" fill="#fff"/><path d="M93.64 35.536c.236-.11.38-.35.366-.606 0-.51-.462-.668-.743-.668h-1.165v2.397h.557v-.936h.21c.282 0 .445.074.523.33.053.206.12.409.2.606h.607a1.894 1.894 0 0 1-.224-.585.682.682 0 0 0-.33-.538zm-.532-.29h-.447v-.55h.393c.171 0 .376.069.376.261a.29.29 0 0 1-.095.218.3.3 0 0 1-.227.078v-.006zM24.449 46.497c-.625.63-1.437 1.258-2.236 1.512-.75.245-2.902.433-3.535-1.361-.136-.387-.025-.506.322-.605a45.99 45.99 0 0 0 3.264-1.082 16.89 16.89 0 0 0 2.778-1.31c.64-.424.736-1.02.45-1.664-.9-2.031-2.93-4.158-6.306-3.511-2.673.521-4.602 2.95-4.602 5.735 0 3.445 2.061 5.46 4.686 6.085 2.427.582 5.28-.605 6.499-2.594.485-.767-.879-1.677-1.32-1.205zm-6.077-2.712c-.262-.73-.052-2.966 1.171-3.39 1.287-.444 2.079.224 2.463 1.53.15.484.11.995-.047 1.187-.228.278-.635.446-1.001.569l-.964.316c-.948.33-1.4.395-1.622-.212zm37.544 2.649c-.625.625-1.437 1.248-2.236 1.5-.75.243-2.902.43-3.534-1.35-.136-.384-.025-.503.321-.6.518-.15 1.855-.546 3.264-1.074a16.862 16.862 0 0 0 2.778-1.3c.64-.42.736-1.012.45-1.65-.9-2.017-2.929-4.127-6.305-3.485-2.683.511-4.605 2.925-4.605 5.685 0 3.418 2.061 5.418 4.686 6.037 2.425.578 5.277-.6 6.498-2.574.486-.754-.876-1.657-1.317-1.19zm-6.078-2.691c-.15-.434-.15-1.401.15-2.2.2-.535.498-.953 1.02-1.163a1.653 1.653 0 0 1 1.485.055c.45.26.772.771.976 1.463.15.48.11.987-.045 1.177-.228.276-.584.416-1.002.564-.417.149-.788.269-.964.324-.951.299-1.397.383-1.62-.22zm30.152 2.691c-.625.625-1.438 1.248-2.236 1.5-.751.243-2.903.43-3.535-1.35-.136-.384-.025-.503.322-.6.52-.15 1.854-.546 3.264-1.074a16.862 16.862 0 0 0 2.777-1.3c.64-.42.736-1.012.45-1.65-.9-2.017-2.928-4.127-6.305-3.485-2.683.511-4.605 2.925-4.605 5.685 0 3.418 2.061 5.418 4.686 6.037 2.426.578 5.279-.6 6.498-2.574.487-.754-.877-1.657-1.317-1.19zm-6.078-2.691c-.15-.434-.15-1.401.15-2.2.2-.535.497-.953 1.02-1.163a1.653 1.653 0 0 1 1.484.055c.45.26.772.771.976 1.463.15.48.111.987-.045 1.177-.228.276-.584.416-1.001.564-.418.149-.789.269-.964.324-.952.299-1.398.383-1.62-.22zM9.03 47.103c0 .459-.15.962-.499 1.121l-.767.346a.3.3 0 0 0-.176.315c0 .039.004.077.01.115l.09.87c.041.235.202.275.517.275h5.56c.312 0 .475-.04.515-.276l.09-.87a.694.694 0 0 0 .011-.114.3.3 0 0 0-.176-.315l-.767-.346c-.354-.157-.5-.66-.5-1.12v-9.616c0-.459.15-.962.5-1.121l.767-.347a.3.3 0 0 0 .176-.316.694.694 0 0 0-.01-.114l-.09-.653c-.041-.236-.202-.275-.517-.275H8.468c-.313 0-.476.039-.516.275l-.09.653a.69.69 0 0 0-.011.114.3.3 0 0 0 .176.316l.625.347c.356.204.38.661.38 1.12v2.681a.338.338 0 0 1-.335.346h-3.01a.338.338 0 0 1-.338-.338v-2.682c0-.458.024-.917.38-1.121l.626-.347a.3.3 0 0 0 .176-.316.695.695 0 0 0-.01-.114l-.09-.653c-.041-.236-.202-.275-.516-.275H.62c-.315 0-.476.039-.516.275l-.09.653a.693.693 0 0 0-.011.11.3.3 0 0 0 .176.315l.767.347c.354.158.5.661.5 1.121v9.616c0 .458-.15.962-.5 1.12l-.767.346a.3.3 0 0 0-.176.314.7.7 0 0 0 .01.115l.09.87c.041.235.202.275.517.275h5.552c.313 0 .475-.04.516-.276l.09-.87a.696.696 0 0 0 .01-.114.3.3 0 0 0-.175-.315l-.768-.346c-.355-.157-.5-.66-.5-1.12v-3.907c0-.187.152-.338.34-.338h3.009c.186 0 .337.152.337.338v3.906zm19.938-8.845c1.103 0 1.998-.873 1.998-1.948 0-1.076-.895-1.948-1.998-1.948s-1.998.872-1.998 1.948c0 1.075.895 1.947 1.998 1.947zM26.86 50.142c-.304 0-.455-.037-.5-.265l-.087-.869a.611.611 0 0 1 0-.11.301.301 0 0 1 .167-.301l.605-.333c.334-.16.482-.636.482-1.077v-5.5c0-.46-.079-1.055-.486-1.25l-.385-.22a.3.3 0 0 1-.177-.317c0-.038.004-.076.01-.114l.091-.654c.041-.238.203-.276.52-.276h3.766a.34.34 0 0 1 .341.34v7.993c0 .441.152.917.482 1.077l.605.333a.3.3 0 0 1 .167.3.593.593 0 0 1 0 .11l-.086.87c-.04.227-.196.265-.498.265l-5.018-.002zm11.328-10.678l.593-.287c.753-.352 2.225-.983 3.443-.601 1.054.335 1.958 1.1 1.958 3.105v6.073c0 .258.012.365.133.431.161.089.443-.176.713-.314.27-.138.423.024.589.207.15.161.32.388.18.686-.453.939-1.458 1.48-2.638 1.48-1.113 0-2.533-.637-2.533-2.303v-5.835c0-.894-.65-1.202-1.154-1.14-.762.094-1.317.73-1.317 1.863v4.37c0 .44.15.915.48 1.075l.602.332a.3.3 0 0 1 .166.3.591.591 0 0 1 0 .11l-.088.867c-.039.227-.194.265-.495.265h-4.973c-.301 0-.452-.038-.495-.265l-.086-.867a.591.591 0 0 1 0-.11.3.3 0 0 1 .165-.3l.603-.332c.332-.16.48-.635.48-1.075v-5.488c0-.459-.079-1.052-.483-1.248l-.383-.22a.3.3 0 0 1-.176-.315c0-.038.004-.076.01-.114l.091-.652c.04-.238.202-.275.517-.275h3.54a.468.468 0 0 1 .466.338l.092.239zm48.647 0l.593-.287c.753-.352 2.225-.983 3.442-.601 1.055.335 1.96 1.1 1.96 3.105v6.073c0 .258.011.365.132.431.16.089.444-.176.712-.314.268-.138.424.024.59.207.15.161.32.388.177.686-.452.939-1.457 1.48-2.636 1.48-1.114 0-2.533-.637-2.533-2.302v-5.836c0-.894-.65-1.202-1.154-1.14-.763.094-1.317.73-1.317 1.863v4.37c0 .44.15.915.479 1.075l.603.332a.3.3 0 0 1 .165.3.609.609 0 0 1 0 .11l-.087.867c-.038.227-.194.265-.496.265h-4.972c-.301 0-.452-.038-.495-.265l-.086-.867a.591.591 0 0 1 0-.11.3.3 0 0 1 .164-.3l.603-.332c.331-.16.479-.635.479-1.075v-5.488c0-.459-.079-1.052-.482-1.248l-.383-.22a.3.3 0 0 1-.176-.315c0-.038.004-.076.01-.114l.09-.652c.041-.238.202-.275.517-.275h3.518a.47.47 0 0 1 .468.338l.115.239z" fill="#fff"/><path d="M68.73 47.346c.218.385.536.704.92.923l.603.333a.3.3 0 0 1 .166.3.63.63 0 0 1 0 .11l-.086.868c-.039.227-.194.264-.496.264h-3.022c-.514 0-.553-.15-.785-.566l-2.523-4.581-.947.902v1.289c0 .44.208.902.551 1.075l.604.333a.3.3 0 0 1 .166.3.591.591 0 0 1 0 .11l-.088.868c-.04.227-.194.264-.496.264h-4.976c-.302 0-.453-.037-.497-.264l-.085-.868a.574.574 0 0 1 0-.11.3.3 0 0 1 .165-.3l.604-.333c.331-.16.48-.634.48-1.075v-9.826c0-.44-.138-.902-.48-1.075l-.604-.332a.3.3 0 0 1-.166-.3.575.575 0 0 1 0-.11l.086-.619c.04-.227.195-.264.497-.264h3.611a.643.643 0 0 1 .643.642v7.46l1.606-1.445c.229-.197.603-.525.754-.67.15-.144.176-.362-.032-.45l-.567-.256a.27.27 0 0 1-.161-.287.6.6 0 0 1 .01-.104l.083-.793c.036-.215.184-.25.47-.25h4.306c.287 0 .434.034.47.25l.083.793a.974.974 0 0 1 .01.104c.008.171-.195.254-.32.31-.204.063-.4.146-.587.249a5.875 5.875 0 0 0-.953.732l-1.668 1.596 2.651 4.803z" fill="#fff"/></svg>