<svg width="73" height="44" fill="none" xmlns="http://www.w3.org/2000/svg"><path d="M6.505 43.851l4.412-4.427-1.481-1.486-2.766 2.775-5.024-5.044L0 37.325l6.505 6.526zm1.817-12.215l1.114 1.113 2.285-2.301 1.327 1.332-2.291 2.301 1.417 1.417 2.829-2.84 1.327 1.332-4.476 4.497-6.51-6.526 4.48-4.502 1.327 1.332-2.829 2.845zm14.486-4.134l-4.427-1.273a2.78 2.78 0 0 0-.613-3.196 2.611 2.611 0 0 0-3.73.17l-3.297 3.308 6.537 6.531 1.652-1.656-5.264-5.285 1.065-1.065a1.188 1.188 0 0 1 1.684-.032c.46.475.448 1.233-.027 1.694l-.97.975 5.627 1.598 1.763-1.769zM19.83 17.136c2.035-2.04 4.726-1.844 6.628.069 1.902 1.912 2.104 4.613.069 6.653-2.035 2.04-4.72 1.843-6.628-.085-1.907-1.928-2.104-4.613-.069-6.654v.017zm1.29 1.31c-1.034 1.033-.688 2.296.57 3.558 1.257 1.263 2.509 1.599 3.542.57 1.034-1.028.688-2.296-.57-3.558-1.257-1.263-2.51-1.635-3.543-.57zm7.298-4.741l-1.214-3.687 1.928-1.933 1.615 6.323 2.546 2.557-1.646 1.657-2.536-2.547-6.036-1.912 1.816-1.822 3.49 1.359.037.005zm30.097 22.502l6.51-6.526-1.736-1.742-6.506 6.526 1.732 1.742zM33.624 11.222l5.061-2.424-3.74 3.75 1.508 1.514 6.5-6.531-2.062-2.073-4.896 2.398 2.45-4.853-2.13-2.137-6.506 6.526 1.502 1.513 3.74-3.75-2.413 5.077.986.99zm11.279.927l-1.114 1.114 2.499 2.503-1.327 1.332-2.493-2.504-1.417 1.417 3.036 3.048-1.326 1.331-4.689-4.704 6.506-6.53 4.688 4.703-1.327 1.332-3.036-3.042zm6.276 16.7l4.411 4.433 1.487-1.492-2.766-2.77 5.025-5.044-1.652-1.652-6.505 6.526zm17.528 4.524l-2.088 6.92h-.006l4.497-4.507 1.545 1.55-6.505 6.526-2.04-2.046 1.779-7.133h.005l-4.443 4.459-1.503-1.508 6.5-6.525 2.26 2.264zm-18.759-5.759l1.252-4.443a2.755 2.755 0 0 0 3.197-.618 2.632 2.632 0 0 0-.166-3.729l-3.5-3.516-6.51 6.547 1.651 1.657 5.275-5.285 1.252 1.284a1.173 1.173 0 1 1-1.657 1.662l-1.194-1.188-1.385 5.86 1.785 1.769z" fill="#fff"/></svg>