<svg width="69" height="18" fill="none" xmlns="http://www.w3.org/2000/svg"><path d="M68.938.56s-1.362-.19-2.91-.19-2.848.127-2.848.127V5.7H69V.56h-.062zm.001 11.93h-5.82v4.95s1.671.19 2.971.19 2.849-.19 2.849-.19v-4.95zM60.827.56h-6.811l-4.768 6.092h-2.167V.56h-5.944v16.88h5.944v-6.346h2.105l4.768 6.346h7.306l-7.12-8.948L60.827.56zM18.66.56H.084v16.88h5.944V5.32h6.688v12.12h5.944V.56zm2.972 4.506L20.765.56s5.573-.444 9.04-.444c3.468 0 7.616.444 7.616.444s1.3 3.427 1.3 8.25-1.3 8.63-1.3 8.63-3.962.445-7.616.445c-3.653 0-8.978-.445-8.978-.445l.867-4.505s3.715.317 6.935.317c3.158 0 4.458-.317 4.458-.317s.124-.825.248-1.777h-7.74V6.843h7.678c-.124-1.08-.186-1.777-.186-1.777s-2.663-.318-4.892-.318c-2.229 0-6.563.318-6.563.318z" opacity=".4" fill="#fff"/></svg>