<svg width="100" height="13" fill="none" xmlns="http://www.w3.org/2000/svg"><path opacity=".4" fill-rule="evenodd" clip-rule="evenodd" d="M6.996 13c2.897 0 4.552-1.526 5.498-3.09L10.09 8.8c-.552 1.036-1.734 1.827-3.094 1.827-2.385 0-4.119-1.752-4.119-4.126 0-2.374 1.734-4.126 4.119-4.126 1.36 0 2.542.81 3.094 1.827l2.404-1.13C11.568 1.507 9.893 0 6.996 0 3.055 0 0 2.638 0 6.5S3.055 13 6.996 13zm15.152 0c-3.96 0-6.857-2.713-6.857-6.5S18.186 0 22.148 0c3.981 0 6.878 2.713 6.878 6.5S26.13 13 22.148 13zm0-2.374c2.425 0 4.001-1.79 4.001-4.126 0-2.355-1.576-4.126-4-4.126-2.425 0-3.981 1.77-3.981 4.126 0 2.336 1.556 4.126 3.98 4.126zm21.243 2.148h-3.213l-2.581-4.465h-2.05v4.465H32.75V.207h6.148c2.74 0 4.415 1.715 4.415 4.051 0 2.223-1.459 3.41-2.878 3.73l2.957 4.786zm-4.908-6.82c1.124 0 1.971-.641 1.971-1.696s-.847-1.696-1.97-1.696h-2.937v3.392h2.936zm19.33 6.82h-3.211L52.02 8.309h-2.05v4.465h-2.798V.207h6.149c2.739 0 4.414 1.715 4.414 4.051 0 2.223-1.458 3.41-2.877 3.73l2.956 4.786zm-4.906-6.82c1.123 0 1.97-.641 1.97-1.696s-.847-1.696-1.97-1.696H49.97v3.392h2.937zm17.99 6.82v-2.355h-6.503V7.574h6.365V5.219h-6.365V2.562h6.503V.207h-9.302v12.567h9.302zm16.197 0h-3.192l-.808-2.13h-5.637l-.827 2.13h-3.193L78.522.207h3.507l5.065 12.567zM82.325 8.29l-2.05-5.407-2.05 5.407h4.1zM94.738 13C98.285 13 100 11.267 100 8.968c0-4.691-7.548-3.354-7.548-5.35 0-.754.67-1.263 1.872-1.263 1.34 0 2.76.433 3.823 1.375l1.557-1.959C98.404.621 96.67.019 94.581.019c-3.094 0-4.986 1.733-4.986 3.824 0 4.73 7.567 3.203 7.567 5.427 0 .716-.749 1.394-2.286 1.394a5.89 5.89 0 0 1-4.178-1.696l-1.517 2.035C90.403 12.19 92.216 13 94.738 13z" fill="#fff"/></svg>