<svg width="106" height="23" fill="none" xmlns="http://www.w3.org/2000/svg"><g opacity=".4"><mask id="a" maskUnits="userSpaceOnUse" x="0" y="0" width="10" height="20"><path d="M0 0h9.522v19.341H0V0z" fill="#fff"/></mask><g mask="url(#a)"><path fill-rule="evenodd" clip-rule="evenodd" d="M5.707 11.929l-3.3 7.412H0l3.623-7.925C1.921 10.55.784 8.98.784 6.086.784 2.028 3.353 0 6.41 0h3.113v19.341H7.438v-7.412h-1.73zM7.438 1.758h-1.11c-1.676 0-3.3 1.11-3.3 4.328 0 3.112 1.49 4.112 3.3 4.112h1.11v-8.44z" fill="#fff"/></g><path fill-rule="evenodd" clip-rule="evenodd" d="M19.572 5.718v13.635h-2.081v-6.115h-3.139v6.115h-2.11V5.718h2.11v5.789h3.139V5.718h2.081zM30.42 22.03h-1.895v-2.677h-5.84v2.677H20.79v-4.409h.838c1.245-2.894 1.38-7.114 1.38-10.74V5.718h6.33v11.903h1.08v4.41zM27.255 7.424h-2.352v.241c0 2.868-.137 7.062-1.273 9.956h3.625V7.424zm8.981 12.118c-2.814 0-4.545-2.244-4.545-6.438 0-4.384 1.218-7.575 4.112-7.575 2.273 0 3.76 1.705 3.76 6.33v1.163h-5.68c0 3.084.865 4.707 2.543 4.707 1.19 0 2.137-.54 2.676-.919l.487 1.622c-.865.676-2 1.11-3.353 1.11zm-2.327-8.25h3.49c0-2.327-.378-4.032-1.596-4.032-1.298 0-1.758 1.597-1.894 4.031zm9.929 1.27v6.79h-2.11V5.719h2.11v6.304l3.273-6.304h2.136l-3.38 6.412 3.867 7.223h-2.3l-3.596-6.792zm6.167-.026c0-4.274 1.65-7.007 4.84-7.007 1.219 0 1.922.326 2.516.705l-.297 2c-.568-.487-1.379-.945-2.245-.945-1.515 0-2.596 1.702-2.596 5.139 0 3.406.81 5.356 2.515 5.356 1.029 0 1.813-.408 2.3-.84l.487 1.57c-.732.623-1.598 1.028-2.842 1.028-2.92 0-4.678-2.352-4.678-7.006zM67.001 1.141v18.233H65.65V1.14h-3.813V.033h9.007V1.14H67zm9.666 16.454c-.65 1.297-1.623 2.11-2.975 2.11-1.84 0-3.112-1.46-3.112-3.95 0-2.922 1.596-4.435 4.546-4.435h1.486V9.615c0-2.084-.784-2.976-2.27-2.976-1.166 0-2.221.542-2.868 1.487L71.12 6.91c.542-.705 1.676-1.381 3.22-1.381 2.245 0 3.516 1.244 3.516 3.95v7.44c0 .947.134 2.002.297 2.515H76.99c-.108-.353-.242-.866-.324-1.84zm-.055-1.597v-3.76h-1.46c-2.245 0-3.328 1.029-3.328 3.41 0 1.92.839 3.028 2.138 3.028 1.272 0 2.163-1.218 2.65-2.678zm5.482 3.416h-1.27V5.78h1.27v6.412l4.57-6.412h1.245l-4.489 6.33 4.815 7.304h-1.407l-4.734-7.059v7.06zm14.009-2.28l.405 1.055s-1.002 1.516-3.139 1.516c-2.73 0-4.301-2.624-4.301-7.062 0-4.489 1.542-7.114 4.328-7.114 1.407 0 2.38.542 2.976 1.273l-.35 1.352c-.598-.84-1.461-1.542-2.626-1.542-2.082 0-3.055 2.19-3.055 6.03 0 3.735.945 5.952 3.055 5.952 1.76 0 2.707-1.46 2.707-1.46zm8.682-7.215c0-.703.053-1.298.107-1.866h-.081a12.125 12.125 0 0 1-.731 1.758l-4.436 9.603h-1.082V5.78h1.19v9.469c0 .73-.053 1.324-.108 1.92h.081c.19-.623.461-1.217.732-1.813l4.435-9.576H106v13.634h-1.215V9.92z" fill="#fff"/></g></svg>