<svg width="80" height="20" fill="none" xmlns="http://www.w3.org/2000/svg"><path d="M17.17 0L10.6 10.957 4.326 0H0v17.519h3.764V5.873l5.845 9.809h1.783l5.944-9.777v11.613h3.731L21.034 0H17.17zm45.172 0v14.041h-8.42V0h-4.128v17.518h15.488V20h3.863v-5.959H66.47V0h-4.128zm17.589 13.994c0 1.947-1.588 3.525-3.548 3.525-1.959 0-3.547-1.578-3.547-3.525 0-1.947 1.588-3.525 3.547-3.525 1.96 0 3.548 1.578 3.548 3.525zM40.483 0l-9.741 11.548V0h-4.128v17.519h3.797L40.12 5.97v11.547h4.128V0h-3.765z" opacity=".4" fill-rule="evenodd" clip-rule="evenodd" fill="#fff"/></svg>