<svg width="570" height="317" fill="none" xmlns="http://www.w3.org/2000/svg"><path d="M34.525 168.467l29.331-16.747 50.281 29.307-29.33 16.746-50.282-29.306zm80.995 85.129l30.727-16.747-1.397 61.405L115.52 315v-61.404zM84.806 81.942c-2.793 5.582 2.794-5.582-50.28 86.524l29.33-16.746c54.471-92.107 47.488-80.942 50.281-86.525l-29.33 16.747z" fill="#fff" stroke="#000" stroke-width="2" stroke-linejoin="round"/><path d="M139.277 229.871l30.728-16.746v36.284l-30.728 18.142v-37.68zm-23.757-13.955l30.727-16.747 23.744 13.956-30.728 16.746-23.743-13.955z" fill="#fff" stroke="#000" stroke-width="2" stroke-linejoin="round"/><path d="M116.916 37.285l29.331-16.747V199.17l-30.727 16.747 1.396-178.631z" fill="#fff" stroke="#000" stroke-width="2" stroke-linejoin="round"/><path d="M83.41 17.747L114.137 1l32.124 19.538-29.33 16.746-33.52-19.537zm32.119 198.169l23.744 13.955v37.68l-23.744-13.955V315l-32.124-18.142v-61.405L1 188.005v-29.307L83.405 17.747l33.521 19.538-1.397 178.631zm-30.727-18.143V81.943l-2.794 4.186-47.487 82.338 50.28 29.306zm347.723-29.306l29.331-16.747 50.281 29.307-29.331 16.746-50.281-29.306zm80.995 85.129l30.727-16.747-1.397 61.405L513.52 315v-61.404zM482.806 81.942c-2.793 5.582 2.794-5.582-50.281 86.524l29.331-16.746c54.471-92.107 47.488-80.942 50.281-86.525l-29.331 16.747z" fill="#fff" stroke="#000" stroke-width="2" stroke-linejoin="round"/><path d="M537.277 229.871l30.728-16.746v36.284l-30.728 18.142v-37.68zm-23.757-13.955l30.727-16.747 23.744 13.956-30.728 16.746-23.743-13.955z" fill="#fff" stroke="#000" stroke-width="2" stroke-linejoin="round"/><path d="M514.916 37.285l29.331-16.747V199.17l-30.727 16.747 1.396-178.631z" fill="#fff" stroke="#000" stroke-width="2" stroke-linejoin="round"/><path d="M481.41 17.747L512.137 1l32.124 19.538-29.33 16.746-33.521-19.537zm32.119 198.169l23.744 13.955v37.68l-23.744-13.955V315l-32.124-18.142v-61.405L399 188.005v-29.307l82.405-140.951 33.521 19.538-1.397 178.631zm-30.727-18.143V81.943l-2.794 4.186-47.487 82.338 50.281 29.306z" fill="#fff" stroke="#000" stroke-width="2" stroke-linejoin="round"/><path d="M298.304 12.572C287.42 5.766 271.094.322 261.57 7.127L233 24.821l14.965-2.722c6.803 0 13.605 2.722 23.129 8.166 66.664 38.11 58.501 137.465 58.501 194.629 0 23.137-1.36 63.968-17.686 81.662L305.106 312l28.571-16.332c21.768-12.25 24.489-62.608 24.489-88.468 1.36-54.442 8.163-155.158-59.862-194.628z" fill="#fff" stroke="#000" stroke-width="2"/><path d="M275.994 222.044c-8.082-26.912-6.735-57.861-6.735-121.105 0-16.147 1.347-49.787 14.816-55.17l-28.286 17.493c-13.469 5.382-14.816 39.023-14.816 55.17 0 63.244-1.347 94.193 6.735 121.105 9.428 28.258 28.286 37.677 36.367 33.64l28.286-16.147c-8.081 2.691-26.939-6.728-36.367-34.986z" fill="#fff" stroke="#000" stroke-width="2"/><path d="M308.328 69.99c2.693 4.037 5.387 9.419 6.734 14.802 9.429 24.22 14.817 55.17 14.817 92.847v47.096c0 39.023-5.388 64.589-14.817 79.391-2.694 4.037-5.387 6.728-9.428 8.074-9.429 5.382-21.552 2.691-36.368-5.383-20.204-12.11-35.021-29.603-44.45-55.17C215.388 226.081 210 195.132 210 157.454v-47.096c0-37.677 5.388-63.244 14.816-78.045 2.694-4.037 5.388-5.383 8.082-8.074 9.429-5.383 21.551-4.037 36.368 5.382 17.51 9.42 29.633 22.876 39.062 40.369zm-9.429 146.671v-60.552c0-25.567-2.694-44.405-6.735-59.207s-10.775-25.567-21.551-30.95c-10.776-5.381-17.51-4.036-22.898 4.038-4.041 8.073-6.735 24.22-6.735 48.442v60.552c0 25.567 2.694 45.751 6.735 60.553 5.388 14.801 12.122 25.566 22.898 30.949 9.429 5.382 17.51 4.037 21.551-4.037 4.041-9.419 6.735-25.567 6.735-49.788z" fill="#fff" stroke="#000" stroke-width="2"/></svg>