<svg width="50" height="50" fill="none" xmlns="http://www.w3.org/2000/svg"><circle cx="25" cy="25" r="25" fill="#272727"/><path d="M25 39.332V10.77M39.28 25H10.72m13.15-14.383s-13.51 12.38 0 28.612m2.26-28.612s13.51 12.38 0 28.612m9.606-5.188c-4.212-2.517-12.02-5.342-21.472 0M35.84 15.908c-4.213 2.568-12.124 5.496-21.782-.052" stroke="#EFD195" stroke-width="1.5" stroke-miterlimit="10" stroke-linejoin="round"/><path d="M10.75 25c0-7.856 6.394-14.25 14.25-14.25 7.851 0 14.2 6.39 14.25 14.252C39.249 32.858 32.856 39.25 25 39.25S10.75 32.856 10.75 25z" stroke="#EFD195" stroke-width="1.5"/></svg>