<svg width="429" height="86" fill="none" xmlns="http://www.w3.org/2000/svg"><g opacity=".05" stroke="#000"><path d="M343.169 89.3c0 8.375-5.632 16.552-16.296 24.156-10.64 7.587-26.1 14.46-45.294 20.249-38.375 11.574-91.451 18.747-150.119 18.747-58.668 0-111.744-7.173-150.12-18.747-19.193-5.789-34.653-12.662-45.293-20.249-10.664-7.604-16.296-15.781-16.296-24.157 0-8.375 5.632-16.552 16.296-24.156 10.64-7.587 26.1-14.46 45.294-20.249C19.716 33.32 72.79 26.147 131.46 26.147c58.668 0 111.744 7.173 150.119 18.747 19.194 5.79 34.654 12.662 45.294 20.249 10.664 7.604 16.296 15.781 16.296 24.156z" stroke-width="2"/><path d="M228.508 89.3c0 3.122-2.123 6.5-6.939 9.909-4.764 3.371-11.787 6.489-20.645 9.141-17.691 5.296-42.251 8.6-69.464 8.6s-51.773-3.304-69.464-8.6c-8.858-2.652-15.88-5.77-20.645-9.141-4.816-3.41-6.939-6.787-6.939-9.91 0-3.122 2.123-6.5 6.94-9.908 4.763-3.372 11.786-6.49 20.644-9.141 17.691-5.296 42.251-8.6 69.464-8.6s51.773 3.304 69.464 8.6c8.858 2.652 15.881 5.77 20.645 9.141 4.816 3.409 6.939 6.786 6.939 9.909z" stroke-width="4"/><path d="M428.102 89.3c0 12.038-8.152 23.608-23.14 34.215-14.974 10.598-36.674 20.163-63.534 28.203-53.714 16.08-127.95 26.033-209.969 26.033-82.019 0-156.254-9.953-209.968-26.033-26.86-8.04-48.561-17.605-63.535-28.203-14.987-10.607-23.14-22.177-23.14-34.215 0-12.04 8.153-23.609 23.14-34.216 14.974-10.598 36.675-20.163 63.535-28.203C-24.795 10.8 49.44.849 131.459.849c82.019 0 156.255 9.952 209.969 26.032 26.86 8.04 48.56 17.605 63.534 28.203 14.988 10.607 23.14 22.177 23.14 34.216z"/></g></svg>