<svg width="570" height="317" viewBox="0 0 570 317" fill="none" xmlns="http://www.w3.org/2000/svg">
<path d="M34.5254 168.467L63.856 151.72L114.137 181.027L84.8064 197.773L34.5254 168.467Z" fill="white" stroke="black" stroke-width="2" stroke-linejoin="round"/>
<path d="M115.52 253.596L146.247 236.849L144.85 298.254L115.52 315V253.596Z" fill="white" stroke="black" stroke-width="2" stroke-linejoin="round"/>
<path d="M84.8064 81.942C82.013 87.5242 87.5998 76.3598 34.5254 168.466L63.856 151.72C118.327 59.6131 111.344 70.7775 114.137 65.1953L84.8064 81.942Z" fill="white" stroke="black" stroke-width="2" stroke-linejoin="round"/>
<path d="M139.277 229.871L170.005 213.125V249.409L139.277 267.551V229.871Z" fill="white" stroke="black" stroke-width="2" stroke-linejoin="round"/>
<path d="M115.52 215.916L146.247 199.169L169.991 213.125L139.263 229.871L115.52 215.916Z" fill="white" stroke="black" stroke-width="2" stroke-linejoin="round"/>
<path d="M116.916 37.2848L146.247 20.5381V199.169L115.52 215.916L116.916 37.2848Z" fill="white" stroke="black" stroke-width="2" stroke-linejoin="round"/>
<path d="M83.4102 17.7467L114.137 1L146.261 20.5378L116.931 37.2844L83.4102 17.7467Z" fill="white" stroke="black" stroke-width="2" stroke-linejoin="round"/>
<path d="M115.529 215.916L139.273 229.871V267.551L115.529 253.596V315L83.405 296.858V235.453L1 188.005L1 158.698L83.405 17.7468L116.926 37.2846L115.529 215.916ZM84.8017 197.773V81.9424L82.0083 86.129L34.5207 168.467L84.8017 197.773Z" fill="white" stroke="black" stroke-width="2" stroke-linejoin="round"/>
<path d="M432.525 168.467L461.856 151.72L512.137 181.027L482.806 197.773L432.525 168.467Z" fill="white" stroke="black" stroke-width="2" stroke-linejoin="round"/>
<path d="M513.52 253.596L544.247 236.849L542.85 298.254L513.52 315V253.596Z" fill="white" stroke="black" stroke-width="2" stroke-linejoin="round"/>
<path d="M482.806 81.942C480.013 87.5242 485.6 76.3598 432.525 168.466L461.856 151.72C516.327 59.6131 509.344 70.7775 512.137 65.1953L482.806 81.942Z" fill="white" stroke="black" stroke-width="2" stroke-linejoin="round"/>
<path d="M537.277 229.871L568.005 213.125V249.409L537.277 267.551V229.871Z" fill="white" stroke="black" stroke-width="2" stroke-linejoin="round"/>
<path d="M513.52 215.916L544.247 199.169L567.991 213.125L537.263 229.871L513.52 215.916Z" fill="white" stroke="black" stroke-width="2" stroke-linejoin="round"/>
<path d="M514.916 37.2848L544.247 20.5381V199.169L513.52 215.916L514.916 37.2848Z" fill="white" stroke="black" stroke-width="2" stroke-linejoin="round"/>
<path d="M481.41 17.7467L512.137 1L544.261 20.5378L514.931 37.2844L481.41 17.7467Z" fill="white" stroke="black" stroke-width="2" stroke-linejoin="round"/>
<path d="M513.529 215.916L537.273 229.871V267.551L513.529 253.596V315L481.405 296.858V235.453L399 188.005V158.698L481.405 17.7468L514.926 37.2846L513.529 215.916ZM482.802 197.773V81.9424L480.008 86.129L432.521 168.467L482.802 197.773Z" fill="white" stroke="black" stroke-width="2" stroke-linejoin="round"/>
<path d="M298.304 12.5715C287.42 5.76629 271.094 0.322137 261.57 7.12733L233 24.8208L247.965 22.0988C254.768 22.0988 261.57 24.8208 271.094 30.265C337.758 68.3741 329.595 167.73 329.595 224.894C329.595 248.031 328.235 288.862 311.909 306.556L305.106 312L333.677 295.668C355.445 283.418 358.166 233.06 358.166 207.2C359.526 152.758 366.329 52.0416 298.304 12.5715Z" fill="white" stroke="black" stroke-width="2"/>
<path d="M275.994 222.044C267.912 195.132 269.259 164.183 269.259 100.939C269.259 84.7918 270.606 51.1515 284.075 45.769L255.789 63.262C242.32 68.6444 240.973 102.285 240.973 118.432C240.973 181.676 239.626 212.625 247.708 239.537C257.136 267.795 275.994 277.214 284.075 273.177L312.361 257.03C304.28 259.721 285.422 250.302 275.994 222.044Z" fill="white" stroke="black" stroke-width="2"/>
<path d="M308.328 69.9897C311.021 74.0266 313.715 79.409 315.062 84.7915C324.491 109.012 329.879 139.962 329.879 177.639V224.735C329.879 263.758 324.491 289.324 315.062 304.126C312.368 308.163 309.675 310.854 305.634 312.2C296.205 317.582 284.082 314.891 269.266 306.817C249.062 294.707 234.245 277.214 224.816 251.647C215.388 226.081 210 195.132 210 157.454V110.358C210 72.681 215.388 47.1143 224.816 32.3126C227.51 28.2758 230.204 26.9302 232.898 24.239C242.327 18.8565 254.449 20.2021 269.266 29.6214C286.776 39.0407 298.899 52.4968 308.328 69.9897ZM298.899 216.661V156.109C298.899 130.542 296.205 111.704 292.164 96.902C288.123 82.1002 281.389 71.3354 270.613 65.9529C259.837 60.5705 253.103 61.9161 247.715 69.9897C243.674 78.0634 240.98 94.2107 240.98 118.432V178.984C240.98 204.551 243.674 224.735 247.715 239.537C253.103 254.338 259.837 265.103 270.613 270.486C280.042 275.868 288.123 274.523 292.164 266.449C296.205 257.03 298.899 240.882 298.899 216.661Z" fill="white" stroke="black" stroke-width="2"/>
</svg>
